<?xml version="1.0"?><svg width="875.885" height="656.154" xmlns="http://www.w3.org/2000/svg">
 <title>orange sad fish</title>
 <metadata id="metadata6">image/svg+xmlrybaVaclavek DavidZS a MS Machovo nam.czrybafish</metadata>
 <g>
  <title>Layer 1</title>
  <rect height="686" width="948" y="40.8456" x="-6.8852" stroke-width="0" stroke-linejoin="round" stroke-linecap="round" stroke="#0000ff" fill="#ffffff" id="svg_3"/>
  <g transform="translate(-415 156)" id="layer1">
   <path d="m791.093018,325.144989l0.244995,0.483002c-36.48999,76.63501 49.964966,110.494995 55.848022,112.695984l0.107971,0.215027c0.027039,-0.054993 0.055969,-0.106018 0.08197,-0.161011c0.096008,0.035034 0.382019,0.161011 0.382019,0.161011l9.350037,-37.609985c36.490967,-76.636017 -59.560059,-73.368011 -65.444031,-75.569031l-0.109009,-0.214996c-0.026001,0.055023 -0.054016,0.106018 -0.080994,0.162018c-0.094971,-0.036011 -0.380981,-0.162018 -0.380981,-0.162018z" stroke-width="0" stroke-miterlimit="4" stroke-linejoin="round" stroke-linecap="round" stroke="#0000ff" fill-rule="evenodd" fill="#4ebf4e" id="path10998"/>
   <path d="m1166.475952,-70.603104c28.312988,-25.035492 85.734985,-52.412292 118.959106,-55.087997c-57.718018,45.510605 -57.875977,73.075104 -63.815063,111.420105c-5.940063,38.345001 -27.669067,89.526993 -25.44397,164.057007c2.031982,68.048004 27.980957,131.945984 33.562012,171.790985c5.579956,39.845001 2.25,73.57901 54.909912,116.319977c-32.427002,-1.974976 -103.921997,-38.780945 -116.219971,-50.411987c-48.023926,-45.418976 -30.765991,-109.959991 -21.853027,-147.396973c15.409058,-64.725006 -21.840942,-38.492004 -33.949951,-84.241028c12.109009,-45.75 48.633057,-22.510986 34.195068,-86.191986c-7.460083,-32.904999 -28.059082,-98.066002 19.655884,-140.258102l0,0l0,0z" stroke-width="0" stroke-miterlimit="4" stroke-linejoin="round" stroke-linecap="round" stroke-dashoffset="0" stroke="#0000ff" fill-rule="nonzero" fill="#4ebf4e" id="rect2007"/>
   <path d="m1166.767944,-71.172401c28.312988,-25.0354 85.734009,-52.4123 118.957031,-55.087997c-57.716919,45.510597 -57.875,73.074402 -63.813965,111.420403c-5.940063,38.345001 -27.669067,89.526001 -25.442993,164.057007c2.031006,68.048004 27.980957,131.945984 33.561035,171.789978c5.580933,39.845001 2.249023,73.579987 54.908936,116.321014c-32.425049,-1.976013 -103.920044,-38.781982 -116.218018,-50.413025c-48.023926,-45.417969 -30.765991,-109.959991 -21.854004,-147.396973c15.409058,-64.725006 -21.840942,-38.490997 -33.95105,-84.240997c12.110107,-45.748993 48.633057,-22.511017 34.196167,-86.192001c-7.459106,-32.905014 -28.059082,-98.06601 19.65686,-140.257408l0,0l0,0z" stroke-width="0" stroke-miterlimit="4" stroke-linejoin="round" stroke-linecap="round" stroke-dashoffset="0" stroke="#0000ff" fill-rule="nonzero" fill="#4ebf4e" opacity="0.75" id="path7373"/>
   <path d="m816.057007,-56.013298c27.786011,-12.676102 49.981995,-21.632103 73.898987,-28.129303c23.916992,-6.497299 55.267029,-13.611099 106.789978,-20.295403c-52.327942,40.4739 -49.965942,57.885002 -32.896973,89.960007c-9.583008,-4.624008 -33.794006,-17.156006 -58.588989,-23.060005c-30.260986,-7.204994 -45.106995,-6.225998 -69.071045,-6.392998c-23.962952,-0.167 -40.67395,4.551003 -48.260986,7.001999c-6.981934,2.254997 -3.411011,-3.607002 28.129028,-19.084297z" stroke-width="0" stroke-miterlimit="4" stroke-linejoin="round" stroke-linecap="round" stroke-dashoffset="0" stroke="#0000ff" fill-rule="nonzero" fill="#4ebf4e" opacity="0.65" id="path23581"/>
   <path d="m695.437988,41.886002c0,25.737991 -21.182007,46.602997 -47.312988,46.602997c-26.132019,0 -47.313965,-20.865005 -47.313965,-46.602997c0,-25.738007 21.181946,-46.602005 47.313965,-46.602005c26.130981,0 47.312988,20.863998 47.312988,46.602005z" stroke-width="0" stroke-miterlimit="4" stroke-linejoin="round" stroke-linecap="round" stroke-dashoffset="0" stroke="#0000ff" fill-rule="nonzero" fill="#4ebf4e" id="path2777"/>
   <path d="m913.143005,146.463989c0,49.275024 -19.325012,93.908997 -50.555969,126.223022c-31.230042,32.315002 -84.990051,51.932983 -107.327026,52.204987c-14.217041,0.173004 -135.963989,-28.783997 -167.194031,-61.097992c-35.800964,-30.152008 -50.153015,-53 -54.528992,-84.541992c-1.710999,-19.72702 15.884033,-92.78302 52.270996,-124.265015c31.22998,-32.315002 126.64502,-87.057999 174.267029,-87.057999c47.622009,0 71.281982,19.996002 102.512024,52.311005c31.230957,32.313995 50.555969,76.947998 50.555969,126.223984z" stroke-width="0" stroke-miterlimit="4" stroke-linejoin="round" stroke-linecap="round" stroke-dashoffset="0" stroke="#0000ff" fill-rule="nonzero" fill="#4ebf4e" id="path1883"/>
   <path d="m913.43103,144.890015c0,49.27597 -19.325073,93.908997 -50.555054,126.224976c-31.230957,32.313995 -84.990967,51.931 -107.328003,52.203003c-14.218018,0.173004 -141.187012,-30.497986 -172.417969,-62.811981c-35.801025,-30.151001 -44.929016,-51.285004 -49.304993,-82.827026c-1.710999,-19.727997 15.882996,-92.781982 52.270996,-124.265991c31.22998,-32.314987 126.643982,-87.056992 174.267029,-87.056992c47.620972,0 71.281982,19.996002 102.512939,52.311005c31.22998,32.313995 50.555054,76.947998 50.555054,126.223007z" stroke-width="0" stroke-miterlimit="4" stroke-linejoin="round" stroke-linecap="round" stroke-dashoffset="0" stroke="#0000ff" fill-rule="nonzero" fill="#4ebf4e" id="path10986"/>
   <path d="m838.412964,-45.883003c-29.830933,0 -58.31897,4.874001 -84.437988,13.671005c84.036011,28.305 143.467041,97.542992 143.467041,178.448997c0,80.906006 -59.43103,150.171997 -143.467041,178.47699c26.119019,8.796997 54.607056,13.671021 84.437988,13.671021c62.901001,0 119.877014,-21.524017 161.128052,-56.304016c20.625,-17.389984 55.644897,-59.807007 101.501953,-80.817993c45.855957,-21.010986 62.50708,-20.617004 62.50708,-47.130005c0,-26.513 -21.058105,-27.539001 -66.914063,-52.496002c-45.855957,-24.955994 -76.469971,-73.841995 -97.094971,-91.229996c-41.251038,-34.772995 -98.227051,-56.290001 -161.128052,-56.290001z" stroke-width="0" stroke-miterlimit="4" stroke-linejoin="round" stroke-linecap="round" stroke-dashoffset="0" stroke="#0000ff" fill-rule="nonzero" fill="#4ebf4e" id="path1874"/>
   <g transform="matrix(0.8705 0 0 0.857415 56.1197 -5.86944)" id="g9179">
    <path d="m756.427124,47.697357c0.012085,30.026993 -24.325989,54.373978 -54.35199,54.373978c-30.026978,0 -54.36499,-24.346985 -54.352966,-54.373978c-0.012024,-30.026001 24.325989,-54.373001 54.352966,-54.373001c30.026001,0 54.364075,24.347 54.35199,54.373001z" stroke-width="0" stroke-miterlimit="4" stroke-linejoin="round" stroke-linecap="round" stroke-dashoffset="0" stroke="#0000ff" fill-rule="nonzero" fill="#4ebf4e" id="path1886"/>
    <path d="m732.642151,67.304352c0.005981,8.69899 -7.385986,15.752975 -16.507996,15.752975c-9.121033,0 -16.514038,-7.053986 -16.508057,-15.752975c-0.005981,-8.697998 7.387024,-15.751999 16.508057,-15.751999c9.122009,0 16.513977,7.054001 16.507996,15.751999z" stroke-width="0" stroke-miterlimit="4" stroke-linejoin="round" stroke-linecap="round" stroke-dashoffset="0" stroke="#0000ff" fill-rule="nonzero" fill="#4ebf4e" id="path2775"/>
    <path d="m772.044189,102.623337c100.448975,203.237015 -219.749023,122.898987 -219.749023,122.898987" stroke-width="0" stroke-miterlimit="4" stroke-linejoin="round" stroke-linecap="round" stroke="#0000ff" marker-start="none" fill-rule="evenodd" fill="#4ebf4e" id="path6337"/>
    <path d="m757.701172,110.43132c26.260986,-13.699982 26.260986,-13.699982 26.260986,-13.699982" stroke-width="0" stroke-miterlimit="4" stroke-linejoin="round" stroke-linecap="round" stroke="#0000ff" fill-rule="evenodd" fill="#4ebf4e" id="path9184"/>
   </g>
   <path d="m838.412964,-45.883003c-29.830933,0 -58.31897,4.874001 -84.437988,13.671005c84.036011,28.305 143.467041,97.542992 143.467041,178.448997c0,80.906006 -59.43103,150.171997 -143.467041,178.47699c26.119019,8.796997 54.607056,13.671021 84.437988,13.671021c62.901001,0 119.877014,-21.524017 161.128052,-56.304016c20.625,-17.389984 55.644897,-59.807007 101.501953,-80.817993c45.855957,-21.010986 62.50708,-20.617004 62.50708,-47.130005c0,-26.513 -21.058105,-27.539001 -66.914063,-52.496002c-45.855957,-24.955994 -76.469971,-73.841995 -97.094971,-91.229996c-41.251038,-34.772995 -98.227051,-56.290001 -161.128052,-56.290001z" stroke-width="0" stroke-miterlimit="4" stroke-linejoin="round" stroke-linecap="round" stroke-dashoffset="0" stroke="#0000ff" fill-rule="nonzero" fill="#4ebf4e" id="path17237"/>
   <path d="m870.379028,-77.946701c-38.970032,15.800301 -25.74707,31.537704 -25.74707,31.537704" stroke-width="0" stroke-miterlimit="4" stroke-linejoin="round" stroke-linecap="round" stroke="#0000ff" fill-rule="evenodd" fill="#4ebf4e" id="path27156"/>
   <path d="m936.096985,-94.733795c-71.632019,21.574692 -54.613953,51.000793 -54.613953,51.000793" stroke-width="0" stroke-miterlimit="4" stroke-linejoin="round" stroke-linecap="round" stroke="#0000ff" fill-rule="evenodd" fill="#4ebf4e" id="path28946"/>
   <path d="m994.413025,-103.594498c-92.525024,25.507401 -77.02002,68.960495 -77.02002,68.960495" stroke-width="0" stroke-miterlimit="4" stroke-linejoin="round" stroke-linecap="round" stroke="#0000ff" fill-rule="evenodd" fill="#4ebf4e" id="path28948"/>
   <path d="m838.412964,-45.883003c-29.830933,0 -58.31897,4.874001 -84.437988,13.671005c84.036011,28.305 143.467041,97.542992 143.467041,178.448997c0,80.906006 -59.43103,150.171997 -143.467041,178.47699c26.119019,8.796997 54.607056,13.671021 84.437988,13.671021c62.901001,0 119.877014,-21.524017 161.128052,-56.304016c20.625,-17.389984 55.644897,-59.807007 101.501953,-80.817993c45.855957,-21.010986 62.50708,-20.617004 62.50708,-47.130005c0,-26.513 -21.058105,-27.539001 -66.914063,-52.496002c-45.855957,-24.955994 -76.469971,-73.841995 -97.094971,-91.229996c-41.251038,-34.772995 -98.227051,-56.290001 -161.128052,-56.290001z" stroke-width="0" stroke-miterlimit="4" stroke-linejoin="round" stroke-linecap="round" stroke-dashoffset="0" stroke="#0000ff" fill-rule="nonzero" fill="#4ebf4e" id="path5587"/>
   <g transform="matrix(0.8705 0 0 0.857415 56.1197 -5.86944)" opacity="0.85" id="g10976">
    <path d="m1031.169189,552.587341c-33.585083,62.112976 -109.38208,-9.405029 -127.876038,-40.656006c-20.997986,-33.278015 -34.914978,-77.189972 18,-160.631042c7.392029,-9.692993 -4.554016,-27.643982 33.603943,-24.311951c24.736084,2.159973 3.667114,34.483978 19.950073,51.973999c18.013977,16.734985 37.724976,44.570038 50.115967,69.016968c14.302002,28.216003 23.131958,72.161011 6.206055,104.608032z" stroke-width="0" stroke-miterlimit="4" stroke-linejoin="round" stroke-linecap="round" stroke-dashoffset="0" stroke="#0000ff" fill-rule="nonzero" fill="#4ebf4e" id="path9185"/>
    <path d="m1031.169189,552.587341c-33.585083,62.112976 -109.38208,-9.405029 -127.876038,-40.656006c-20.997986,-33.278015 -34.914978,-77.189972 18,-160.631042c7.392029,-9.692993 -4.554016,-27.643982 33.603943,-24.311951c24.736084,2.159973 3.667114,34.483978 19.950073,51.973999c18.013977,16.734985 37.724976,44.570038 50.115967,69.016968c14.302002,28.216003 23.131958,72.161011 6.206055,104.608032z" stroke-width="0" stroke-miterlimit="4" stroke-linejoin="round" stroke-linecap="round" stroke-dashoffset="0" stroke="#0000ff" fill-rule="nonzero" fill="#4ebf4e" id="path10081"/>
   </g>
  </g>
  <circle r="53.7129" cy="204.846" cx="246.115" stroke-width="5" stroke="#000000" fill="#ffffff" id="svg_1"/>
  <circle r="15.2969" cy="219.846" cx="232.115" stroke-width="5" stroke="#000000" fill="#000000" id="svg_2"/>
  <circle r="1" cy="123.846" cx="168.115" stroke="#000000" fill="#aaffff" id="svg_11"/>
  <path d="m150.414612,395.330017c86.826874,-2.636322 170.761627,-276.962685 121.225555,-97.188019c-49.533401,179.773193 -121.225555,97.188019 -121.225555,97.188019z" transform="rotate(43.2961 218.409 325.685)" stroke-width="5" stroke-linejoin="null" stroke-linecap="null" stroke-dasharray="null" stroke="#000000" fill="#000000" id="svg_4"/>
 </g>
</svg>